<?xml version="1.0" standalone="no"?>
<!DOCTYPE svg PUBLIC "-//W3C//DTD SVG 20010904//EN"
 "http://www.w3.org/TR/2001/REC-SVG-20010904/DTD/svg10.dtd">
<svg version="1.0" xmlns="http://www.w3.org/2000/svg"
 width="1024.000000pt" height="1024.000000pt" viewBox="0 0 1024.000000 1024.000000"
 preserveAspectRatio="xMidYMid meet">

<g transform="translate(0.000000,1024.000000) scale(0.100000,-0.100000)"
fill="none" stroke="#ffffff">
<path d="M0 5120 l0 -5120 5120 0 5120 0 0 5120 0 5120 -5120 0 -5120 0 0
-5120z m7490 3235 l0 -125 -125 0 -125 0 0 125 0 125 125 0 125 0 0 -125z
m-575 -255 l0 -135 -135 0 -135 0 -3 124 c-1 69 0 131 2 138 4 11 35 13 138
11 l133 -3 0 -135z m585 -275 l0 -135 -135 0 -135 0 0 135 0 135 135 0 135 0
0 -135z m-290 -300 l0 -135 -145 0 -145 0 0 135 0 135 145 0 145 0 0 -135z
m-1335 -227 c-193 -194 -350 -353 -351 -355 0 -1 -272 -3 -604 -3 l-603 -1
-350 -346 -350 -346 -25 29 c-13 16 -64 73 -113 126 l-89 96 0 325 0 325 258
251 257 251 1160 0 1160 0 -350 -352z m895 -16 l0 -367 -417 -417 -418 -417
-226 -3 c-222 -3 -226 -3 -262 -28 -20 -13 -46 -43 -59 -65 -22 -38 -23 -51
-25 -255 l-2 -215 -838 -832 -838 -832 -127 -1 -128 0 0 414 0 413 445 442
445 441 212 0 c240 0 273 8 321 71 40 54 47 100 47 310 l0 195 760 757 761
757 174 0 175 0 0 -368z m-36 -2125 l96 -108 0 -322 0 -322 -277 -277 -278
-278 -1200 1 -1200 0 360 355 360 354 630 0 630 0 372 372 c368 367 373 372
392 353 10 -11 62 -69 115 -128z m-1114 -3039 c97 -29 141 -101 141 -232 0
-187 -74 -251 -286 -251 -98 1 -116 3 -160 26 -86 44 -120 119 -113 250 6 94
36 153 97 187 66 37 230 47 321 20z m1420 2 c99 -27 141 -89 148 -216 8 -139
-36 -221 -135 -255 -50 -18 -236 -18 -286 -1 -52 19 -96 59 -118 107 -21 46
-26 175 -9 237 14 49 55 97 100 116 72 30 209 36 300 12z m-3485 -35 c0 -38
-5 -44 -167 -195 l-167 -155 167 -5 167 -5 3 -42 3 -43 -246 0 -246 0 3 42 c3
40 10 49 169 198 l166 155 -163 3 -164 2 0 45 0 45 238 -2 237 -3 0 -40z m632
17 c85 -44 103 -99 103 -309 l0 -153 -50 0 -50 0 0 75 0 74 -126 3 c-105 3
-129 6 -137 19 -8 13 -6 24 6 43 17 26 19 26 137 26 l120 0 0 30 c0 48 -25 97
-59 115 -41 20 -187 23 -226 4 -47 -23 -69 -62 -73 -132 -8 -127 32 -169 169
-175 l89 -4 0 -39 0 -39 -52 -1 c-147 -3 -196 8 -241 50 -52 47 -61 77 -62
186 0 85 4 107 23 147 23 47 64 81 120 99 15 4 81 7 147 6 101 -2 127 -6 162
-25z m454 -19 c25 -27 95 -104 154 -173 59 -69 112 -127 118 -129 6 -2 8 60 6
170 l-4 174 48 3 47 3 0 -245 0 -246 -54 0 -55 0 -147 168 c-80 92 -151 169
-156 171 -7 2 -9 -54 -7 -165 l4 -169 -52 -3 -53 -3 4 243 c2 134 4 244 5 246
1 1 23 2 49 2 44 0 51 -4 93 -47z m1737 27 c56 -25 87 -88 80 -162 -7 -70 -47
-115 -123 -141 -5 -2 13 -30 40 -61 28 -32 58 -69 68 -82 l19 -24 -64 0 -65 0
-69 85 -69 85 -70 -2 -70 -3 -3 -82 -3 -83 -49 0 -50 0 0 238 c0 131 3 242 7
245 3 4 90 7 192 7 163 0 191 -3 229 -20z"/>
<path d="M5435 2041 c-99 -13 -129 -49 -130 -155 0 -116 37 -154 157 -163 140
-10 198 35 198 154 0 83 -20 130 -62 147 -45 18 -103 24 -163 17z"/>
<path d="M6847 2041 c-85 -17 -117 -59 -117 -155 0 -122 42 -160 180 -161 140
0 186 44 178 171 -4 69 -26 110 -69 130 -33 16 -126 24 -172 15z"/>
<path d="M6057 2033 c-2 -5 -5 -36 -6 -70 l-2 -62 45 -6 c24 -4 85 -5 134 -4
71 3 94 8 111 23 31 28 28 79 -5 105 -24 19 -40 21 -150 21 -67 0 -125 -3
-127 -7z"/>
</g>
</svg>
