<?xml version="1.0" standalone="no"?>
<!DOCTYPE svg PUBLIC "-//W3C//DTD SVG 20010904//EN"
 "http://www.w3.org/TR/2001/REC-SVG-20010904/DTD/svg10.dtd">
<svg version="1.0" xmlns="http://www.w3.org/2000/svg"
 width="439.000000pt" height="501.000000pt" viewBox="0 0 439.000000 501.000000"
 preserveAspectRatio="xMidYMid meet">

<g transform="translate(0.000000,501.000000) scale(0.100000,-0.100000)"
fill="#000000" stroke="none">
<path d="M0 2505 l0 -2505 2195 0 2195 0 0 2505 0 2505 -2195 0 -2195 0 0
-2505z m4220 2250 l0 -125 -125 0 -125 0 0 125 0 125 125 0 125 0 0 -125z
m-575 -255 l0 -135 -135 0 -135 0 -3 124 c-1 69 0 131 2 138 4 11 35 13 138
11 l133 -3 0 -135z m585 -275 l0 -135 -135 0 -135 0 0 135 0 135 135 0 135 0
0 -135z m-290 -300 l0 -135 -145 0 -145 0 0 135 0 135 145 0 145 0 0 -135z
m-991 121 c-2 -3 -161 -163 -353 -355 l-350 -351 -600 0 -601 -1 -349 -346
-349 -346 -25 29 c-13 16 -64 73 -113 126 l-89 96 0 325 0 325 258 251 257
251 1159 0 c638 0 1157 -2 1155 -4z m551 -363 l0 -368 -417 -417 -418 -418
-214 0 c-198 0 -218 -2 -258 -21 -30 -15 -52 -35 -71 -67 -27 -47 -27 -48 -29
-262 l-3 -215 -837 -832 -838 -832 -127 -1 -128 0 0 413 0 414 444 441 445
442 213 0 c240 0 273 8 321 71 40 54 47 100 47 309 l0 196 760 757 760 757
175 0 175 0 0 -367z m-36 -2126 l96 -108 0 -322 0 -322 -277 -277 -278 -278
-1200 0 -1200 1 360 354 360 355 630 0 630 0 372 372 c368 367 373 372 392
353 10 -11 62 -69 115 -128z"/>
</g>
</svg>
